<svg width="24" height="24" viewBox="0 0 24 24" fill="none" xmlns="http://www.w3.org/2000/svg">
<path d="M17.1191 9.78122C15.6403 9.69663 14.2417 10.4109 13.4387 11.629C13.487 11.4469 13.5412 11.2664 13.601 11.0876C13.6422 10.9646 13.7354 10.8611 13.8636 10.7961C15.3255 10.0541 16.2095 8.51733 16.1157 6.88095C15.9958 4.79107 14.2627 3.08793 12.17 3.00349C11.0356 2.95767 9.96139 3.36459 9.14462 4.14904C8.32747 4.93386 7.87749 5.98986 7.87749 7.12258C7.87749 8.68367 8.74504 10.0922 10.1416 10.7986C10.2663 10.8617 10.3574 10.9631 10.3979 11.084C10.4582 11.2639 10.5127 11.4457 10.5613 11.6289C9.75831 10.411 8.35919 9.6964 6.88096 9.78122C4.79098 9.90106 3.08784 11.6343 3.00347 13.7269C2.95779 14.8611 3.36465 15.9355 4.1491 16.7522C4.93392 17.5694 5.98993 18.0193 7.12259 18.0193C8.52433 18.0193 9.8051 17.3184 10.5629 16.163C10.1857 17.5852 9.45517 18.9088 8.43719 19.9884C8.27295 20.1626 8.22795 20.4178 8.32289 20.6377C8.41784 20.8576 8.63427 21 8.87373 21H9.83225H14.1677H15.1263C15.3657 21 15.5822 20.8576 15.6771 20.6377C15.772 20.4178 15.727 20.1627 15.5628 19.9884C14.5448 18.9088 13.8144 17.5851 13.4371 16.163C14.1949 17.3184 15.4757 18.0193 16.8775 18.0193C18.0101 18.0193 19.0661 17.5694 19.851 16.7522C20.6354 15.9354 21.0423 14.8611 20.9965 13.7269C20.9122 11.6343 19.209 9.90106 17.1191 9.78122ZM9.07735 7.12265C9.07735 6.31961 9.39638 5.57094 9.97572 5.01455C10.5253 4.48666 11.2398 4.20003 11.9992 4.20003C12.0399 4.20003 12.0807 4.20086 12.1216 4.20251C13.6045 4.26235 14.8327 5.46909 14.9176 6.94972C14.9841 8.11019 14.3573 9.19994 13.3204 9.72618C12.9095 9.93474 12.605 10.2829 12.463 10.7067C12.2329 11.3944 12.0772 12.1064 11.9999 12.8253C11.9224 12.1052 11.7664 11.3918 11.5355 10.7028C11.394 10.2807 11.0913 9.93444 10.6831 9.72798C9.69268 9.22694 9.07735 8.2286 9.07735 7.12265ZM13.8543 19.8001H10.1457C11.1681 18.383 11.8145 16.711 11.9999 14.9718C12.1855 16.711 12.8318 18.3829 13.8543 19.8001ZM18.9856 15.921C18.4291 16.5003 17.6804 16.8193 16.8775 16.8193C15.7759 16.8193 14.7794 16.2077 14.2769 15.223C14.0645 14.8066 13.7127 14.4996 13.2866 14.3588C13.1106 14.3006 12.9271 14.2454 12.7412 14.1947C12.6891 14.1805 12.636 14.1735 12.5833 14.1735C12.444 14.1735 12.307 14.2221 12.1977 14.3138C12.0981 14.3974 12.0298 14.5096 12.0001 14.6326C11.9704 14.5096 11.902 14.3974 11.8025 14.3138C11.6517 14.1874 11.4486 14.1429 11.2589 14.1947C11.0729 14.2454 10.8894 14.3006 10.7134 14.3588C10.2874 14.4997 9.93567 14.8066 9.72313 15.2231C9.22059 16.2078 8.22412 16.8194 7.12259 16.8194C6.31961 16.8194 5.57094 16.5004 5.01447 15.921C4.45838 15.3421 4.16995 14.5801 4.20242 13.7753C4.26219 12.2923 5.46894 11.0641 6.94965 10.9792C8.10766 10.9129 9.19659 11.5378 9.72373 12.5716C9.93552 12.9871 10.2862 13.2934 10.711 13.434C10.8876 13.4924 11.0718 13.5479 11.2587 13.5989C11.4487 13.6507 11.6519 13.6061 11.8025 13.4795C11.9021 13.3958 11.9704 13.2834 12 13.1602C12.0296 13.2834 12.0979 13.3958 12.1975 13.4794C12.3482 13.6061 12.5514 13.6507 12.7413 13.5989C12.928 13.548 13.1121 13.4926 13.2886 13.4341C13.7136 13.2935 14.0645 12.9871 14.2764 12.5714C14.8035 11.5378 15.8923 10.9127 17.0503 10.9793C18.531 11.0642 19.7378 12.2923 19.7976 13.7754C19.83 14.5801 19.5417 15.3421 18.9856 15.921Z" fill="black"/>
</svg>
