<svg width="24" height="24" viewBox="0 0 24 24" fill="none" xmlns="http://www.w3.org/2000/svg">
<path d="M3.24705 12.4853C5.97585 14.4698 9.53018 18.0242 11.5148 20.7529C11.6276 20.9081 11.808 21 12 21C12.192 21 12.3723 20.9081 12.4852 20.7529C14.4698 18.0242 18.0242 14.4698 20.753 12.4853C20.9082 12.3724 21 12.192 21 12C21 11.808 20.9081 11.6277 20.753 11.5148C18.0242 9.53025 14.4697 5.97585 12.4852 3.24713C12.3724 3.09188 12.192 3 12 3C11.808 3 11.6277 3.09188 11.5148 3.24713C9.53018 5.97585 5.97585 9.53018 3.24705 11.5148C3.0918 11.6276 3 11.808 3 12C3 12.192 3.0918 12.3724 3.24705 12.4853ZM12 4.5984C13.9533 7.11863 16.8813 10.0466 19.4016 12C16.8813 13.9534 13.9533 16.8814 12 19.4016C10.0467 16.8814 7.1187 13.9534 4.5984 12C7.11862 10.0466 10.0466 7.11863 12 4.5984Z" fill="#FF0000"/>
</svg>
