<svg width="24" height="24" viewBox="0 0 24 24" fill="none" xmlns="http://www.w3.org/2000/svg">
<path d="M16.2147 3C14.6064 3 13.0855 3.67219 11.9999 4.83247C10.9144 3.67219 9.39356 3 7.78509 3C4.59526 3 2 5.6059 2 8.8091C2 11.5775 3.64091 14.464 6.87719 17.3883C9.23677 19.5205 11.5625 20.8548 11.6604 20.9105C11.7651 20.9702 11.8826 21 12 21C12.1174 21 12.2349 20.9702 12.3396 20.9105C12.4374 20.8548 14.7631 19.5205 17.1228 17.3883C20.3591 14.464 22 11.5775 22 8.8091C22 5.6059 19.4047 3 16.2147 3ZM12 19.5994C10.3578 18.5853 3.33441 13.9466 3.33441 8.8091C3.33441 6.31489 5.33103 4.28571 7.78518 4.28571C9.24169 4.28571 10.609 5.01431 11.4426 6.23478C11.5661 6.41542 11.7755 6.52423 12 6.52423C12.2245 6.52423 12.4339 6.41542 12.5574 6.23478C13.391 5.01431 14.7583 4.28571 16.2148 4.28571C18.669 4.28571 20.6656 6.31489 20.6656 8.8091C20.6656 13.9466 13.6421 18.5854 12 19.5994Z" fill="#FF0000"/>
</svg>
