<svg width="24" height="24" viewBox="0 0 24 24" fill="none" xmlns="http://www.w3.org/2000/svg">
<path d="M12.3043 2.0828C12.1154 1.9724 11.8848 1.9724 11.6958 2.0828C11.3408 2.2903 3 7.2342 3 13.2784C3 16.2572 5.33985 18.6806 8.21588 18.6806C8.79505 18.6806 9.35807 18.5845 9.89091 18.3972C9.46794 19.3168 8.90934 20.1693 8.23746 20.9134C8.06807 21.101 8.02213 21.3752 8.12044 21.6112C8.21875 21.8473 8.44261 22 8.69006 22H15.3584C15.6058 22 15.8297 21.8472 15.928 21.6112C16.0264 21.3752 15.9804 21.101 15.811 20.9134C15.144 20.1747 14.5882 19.3285 14.1661 18.4155C14.6828 18.5906 15.2267 18.6805 15.7842 18.6805C18.6602 18.6805 21 16.2571 21 13.2783C21.0001 7.2342 12.6594 2.2903 12.3043 2.0828ZM15.7843 17.3903C14.9096 17.3903 14.0788 17.0997 13.3819 16.5502C13.1686 16.3821 12.8759 16.3749 12.6553 16.5323C12.4347 16.6897 12.336 16.9764 12.4104 17.2436C12.7563 18.4851 13.3126 19.6629 14.0426 20.7098H10.0061C10.7462 19.6485 11.3073 18.4534 11.6522 17.1929C11.7258 16.924 11.6244 16.6365 11.401 16.4807C11.1777 16.3249 10.8833 16.3363 10.6717 16.509C9.9654 17.0855 9.11621 17.3904 8.21588 17.3904C6.02439 17.3904 4.24151 15.5458 4.24151 13.2785C4.24151 10.5603 6.39793 7.98743 8.20696 6.30766C9.76932 4.85693 11.3524 3.80378 12.0001 3.39483C12.6478 3.80378 14.2308 4.85693 15.7932 6.30766C19.0706 9.35098 19.7586 11.7782 19.7586 13.2785C19.7586 15.5457 17.9757 17.3903 15.7843 17.3903Z" fill="black"/>
</svg>
